<svg width="512" height="512" viewBox="0 0 512 512" fill="none" xmlns="http://www.w3.org/2000/svg">
<g clip-path="url(#clip0_901_449)">
<rect width="512" height="512" fill="white"/>
<path d="M180 244.5L209 270C209 284.4 198.333 286 193 285L144 252C139.6 250.4 139.5 244.667 140 242L196 197C198 182.6 186.167 179.667 180 180L108.5 233C100.5 237 101.5 248.667 103 254L184 312C212 323.2 225.667 297.333 229 283C232 269.333 238.2 237 239 217C239.8 197 251 179 256.5 172.5C272.9 152.1 303 156 316 160.5L403.5 226C419.1 245.6 405.667 270.833 397 281L319.5 335C267.9 342.6 271.333 302.167 279.5 281L317.5 249L286 224C281.6 212 292.833 208 299 207.5L352 244.5C354.8 248.1 353.167 251 352 252L296.5 298C295.7 314.8 307.167 314.333 313 312L384 260.5C391.6 252.9 387.167 241 384 236L313 185.5C278.6 171.9 266.333 195.833 264.5 209.5L243 312C228.6 342.8 195 341.167 180 336.5L92 273.5C78.4 265.9 83 238.333 87 225.5L171.5 159C216.7 146.6 221.667 187.5 218.5 209.5L180 244.5Z" fill="#6AB3D0" stroke="#6AB4CF"/>
</g>
<defs>
<clipPath id="clip0_901_449">
<rect width="512" height="512" fill="white"/>
</clipPath>
</defs>
</svg>
